<mxfile host="app.diagrams.net" agent="Mozilla/5.0 (Windows NT 10.0; Win64; x64) AppleWebKit/537.36 (KHTML, like Gecko) Chrome/129.0.0.0 Safari/537.36 Edg/129.0.0.0" version="24.7.12">
  <diagram name="PÃ¡gina-1" id="um2FEVBiQ8bsY3WOq9cB">
    <mxGraphModel dx="2022" dy="2044" grid="1" gridSize="10" guides="1" tooltips="1" connect="1" arrows="1" fold="1" page="1" pageScale="1" pageWidth="827" pageHeight="1169" math="0" shadow="0">
      <root>
        <mxCell id="0" />
        <mxCell id="1" parent="0" />
        <mxCell id="gaKlOw3Nlw9WnxR1V66K-3" style="edgeStyle=orthogonalEdgeStyle;rounded=0;orthogonalLoop=1;jettySize=auto;html=1;exitX=0.5;exitY=1;exitDx=0;exitDy=0;exitPerimeter=0;entryX=0.5;entryY=0;entryDx=0;entryDy=0;" edge="1" parent="1" source="gaKlOw3Nlw9WnxR1V66K-1" target="gaKlOw3Nlw9WnxR1V66K-2">
          <mxGeometry relative="1" as="geometry" />
        </mxCell>
        <mxCell id="gaKlOw3Nlw9WnxR1V66K-1" value="INICIO" style="strokeWidth=2;html=1;shape=mxgraph.flowchart.terminator;whiteSpace=wrap;" vertex="1" parent="1">
          <mxGeometry x="270" width="100" height="60" as="geometry" />
        </mxCell>
        <mxCell id="gaKlOw3Nlw9WnxR1V66K-11" style="edgeStyle=orthogonalEdgeStyle;rounded=0;orthogonalLoop=1;jettySize=auto;html=1;exitX=0.5;exitY=1;exitDx=0;exitDy=0;" edge="1" parent="1" source="gaKlOw3Nlw9WnxR1V66K-2" target="gaKlOw3Nlw9WnxR1V66K-4">
          <mxGeometry relative="1" as="geometry" />
        </mxCell>
        <mxCell id="gaKlOw3Nlw9WnxR1V66K-2" value="Declarar variables: cartajugador, cartaCrupier, sumajugador, sumaCrupier" style="rounded=1;whiteSpace=wrap;html=1;" vertex="1" parent="1">
          <mxGeometry x="120" y="90" width="400" height="40" as="geometry" />
        </mxCell>
        <mxCell id="gaKlOw3Nlw9WnxR1V66K-12" style="edgeStyle=orthogonalEdgeStyle;rounded=0;orthogonalLoop=1;jettySize=auto;html=1;exitX=0.5;exitY=1;exitDx=0;exitDy=0;entryX=0.5;entryY=0;entryDx=0;entryDy=0;" edge="1" parent="1" source="gaKlOw3Nlw9WnxR1V66K-4" target="gaKlOw3Nlw9WnxR1V66K-5">
          <mxGeometry relative="1" as="geometry" />
        </mxCell>
        <mxCell id="gaKlOw3Nlw9WnxR1V66K-4" value="Inicializar cartas" style="rounded=1;whiteSpace=wrap;html=1;" vertex="1" parent="1">
          <mxGeometry x="265" y="160" width="110" height="40" as="geometry" />
        </mxCell>
        <mxCell id="gaKlOw3Nlw9WnxR1V66K-13" style="edgeStyle=orthogonalEdgeStyle;rounded=0;orthogonalLoop=1;jettySize=auto;html=1;exitX=0.5;exitY=1;exitDx=0;exitDy=0;entryX=0.5;entryY=0;entryDx=0;entryDy=0;" edge="1" parent="1" source="gaKlOw3Nlw9WnxR1V66K-5" target="gaKlOw3Nlw9WnxR1V66K-6">
          <mxGeometry relative="1" as="geometry" />
        </mxCell>
        <mxCell id="gaKlOw3Nlw9WnxR1V66K-5" value="cartajugador = obtener carta aleatoria" style="rounded=1;whiteSpace=wrap;html=1;" vertex="1" parent="1">
          <mxGeometry x="217.5" y="230" width="205" height="40" as="geometry" />
        </mxCell>
        <mxCell id="gaKlOw3Nlw9WnxR1V66K-14" style="edgeStyle=orthogonalEdgeStyle;rounded=0;orthogonalLoop=1;jettySize=auto;html=1;exitX=0.5;exitY=1;exitDx=0;exitDy=0;entryX=0.5;entryY=0;entryDx=0;entryDy=0;" edge="1" parent="1" source="gaKlOw3Nlw9WnxR1V66K-6" target="gaKlOw3Nlw9WnxR1V66K-7">
          <mxGeometry relative="1" as="geometry" />
        </mxCell>
        <mxCell id="gaKlOw3Nlw9WnxR1V66K-6" value="cartaCrupier = obtener carta aleatoria" style="rounded=1;whiteSpace=wrap;html=1;" vertex="1" parent="1">
          <mxGeometry x="217.5" y="300" width="205" height="40" as="geometry" />
        </mxCell>
        <mxCell id="gaKlOw3Nlw9WnxR1V66K-15" style="edgeStyle=orthogonalEdgeStyle;rounded=0;orthogonalLoop=1;jettySize=auto;html=1;exitX=0.5;exitY=1;exitDx=0;exitDy=0;entryX=0.5;entryY=0;entryDx=0;entryDy=0;" edge="1" parent="1" source="gaKlOw3Nlw9WnxR1V66K-7" target="gaKlOw3Nlw9WnxR1V66K-8">
          <mxGeometry relative="1" as="geometry" />
        </mxCell>
        <mxCell id="gaKlOw3Nlw9WnxR1V66K-7" value="sumajugador = cartajugador" style="rounded=1;whiteSpace=wrap;html=1;" vertex="1" parent="1">
          <mxGeometry x="233.75" y="370" width="172.5" height="40" as="geometry" />
        </mxCell>
        <mxCell id="gaKlOw3Nlw9WnxR1V66K-16" style="edgeStyle=orthogonalEdgeStyle;rounded=0;orthogonalLoop=1;jettySize=auto;html=1;exitX=0.5;exitY=1;exitDx=0;exitDy=0;entryX=0.5;entryY=0;entryDx=0;entryDy=0;" edge="1" parent="1" source="gaKlOw3Nlw9WnxR1V66K-8" target="gaKlOw3Nlw9WnxR1V66K-9">
          <mxGeometry relative="1" as="geometry" />
        </mxCell>
        <mxCell id="gaKlOw3Nlw9WnxR1V66K-8" value="sumaCrupier = cartaCrupier" style="rounded=1;whiteSpace=wrap;html=1;" vertex="1" parent="1">
          <mxGeometry x="233.75" y="440" width="172.5" height="40" as="geometry" />
        </mxCell>
        <mxCell id="gaKlOw3Nlw9WnxR1V66K-17" style="edgeStyle=orthogonalEdgeStyle;rounded=0;orthogonalLoop=1;jettySize=auto;html=1;exitX=0.5;exitY=1;exitDx=0;exitDy=0;entryX=0.5;entryY=0;entryDx=0;entryDy=0;" edge="1" parent="1" source="gaKlOw3Nlw9WnxR1V66K-9" target="gaKlOw3Nlw9WnxR1V66K-10">
          <mxGeometry relative="1" as="geometry" />
        </mxCell>
        <mxCell id="gaKlOw3Nlw9WnxR1V66K-9" value="Mostrar cartajugador" style="rounded=1;whiteSpace=wrap;html=1;" vertex="1" parent="1">
          <mxGeometry x="233.75" y="510" width="172.5" height="40" as="geometry" />
        </mxCell>
        <mxCell id="gaKlOw3Nlw9WnxR1V66K-21" style="edgeStyle=orthogonalEdgeStyle;rounded=0;orthogonalLoop=1;jettySize=auto;html=1;exitX=0.5;exitY=1;exitDx=0;exitDy=0;entryX=0.5;entryY=0;entryDx=0;entryDy=0;" edge="1" parent="1" source="gaKlOw3Nlw9WnxR1V66K-10" target="gaKlOw3Nlw9WnxR1V66K-18">
          <mxGeometry relative="1" as="geometry" />
        </mxCell>
        <mxCell id="gaKlOw3Nlw9WnxR1V66K-10" value="Mostrar cartaCrupier" style="rounded=1;whiteSpace=wrap;html=1;" vertex="1" parent="1">
          <mxGeometry x="233.75" y="584.5" width="172.5" height="40" as="geometry" />
        </mxCell>
        <mxCell id="gaKlOw3Nlw9WnxR1V66K-25" style="edgeStyle=orthogonalEdgeStyle;rounded=0;orthogonalLoop=1;jettySize=auto;html=1;exitX=0.5;exitY=1;exitDx=0;exitDy=0;entryX=0.5;entryY=0;entryDx=0;entryDy=0;" edge="1" parent="1" source="gaKlOw3Nlw9WnxR1V66K-18" target="gaKlOw3Nlw9WnxR1V66K-23">
          <mxGeometry relative="1" as="geometry" />
        </mxCell>
        <mxCell id="gaKlOw3Nlw9WnxR1V66K-34" style="edgeStyle=orthogonalEdgeStyle;rounded=0;orthogonalLoop=1;jettySize=auto;html=1;exitX=0;exitY=0.5;exitDx=0;exitDy=0;entryX=0.5;entryY=0;entryDx=0;entryDy=0;" edge="1" parent="1" source="gaKlOw3Nlw9WnxR1V66K-18" target="gaKlOw3Nlw9WnxR1V66K-33">
          <mxGeometry relative="1" as="geometry">
            <mxPoint x="320" y="1200" as="targetPoint" />
            <Array as="points">
              <mxPoint x="40" y="700" />
              <mxPoint x="40" y="1200" />
              <mxPoint x="320" y="1200" />
            </Array>
          </mxGeometry>
        </mxCell>
        <mxCell id="gaKlOw3Nlw9WnxR1V66K-18" value="suma jugador &amp;lt; 21" style="rhombus;whiteSpace=wrap;html=1;" vertex="1" parent="1">
          <mxGeometry x="225" y="660" width="190" height="80" as="geometry" />
        </mxCell>
        <mxCell id="gaKlOw3Nlw9WnxR1V66K-27" style="edgeStyle=orthogonalEdgeStyle;rounded=0;orthogonalLoop=1;jettySize=auto;html=1;exitX=0.5;exitY=1;exitDx=0;exitDy=0;entryX=0.5;entryY=0;entryDx=0;entryDy=0;" edge="1" parent="1" source="gaKlOw3Nlw9WnxR1V66K-23" target="gaKlOw3Nlw9WnxR1V66K-26">
          <mxGeometry relative="1" as="geometry" />
        </mxCell>
        <mxCell id="gaKlOw3Nlw9WnxR1V66K-23" value="Preguntar si quiere otra carta" style="rounded=1;whiteSpace=wrap;html=1;" vertex="1" parent="1">
          <mxGeometry x="225" y="780" width="190" height="40" as="geometry" />
        </mxCell>
        <mxCell id="gaKlOw3Nlw9WnxR1V66K-36" style="edgeStyle=orthogonalEdgeStyle;rounded=0;orthogonalLoop=1;jettySize=auto;html=1;exitX=1;exitY=0.5;exitDx=0;exitDy=0;" edge="1" parent="1" source="gaKlOw3Nlw9WnxR1V66K-26">
          <mxGeometry relative="1" as="geometry">
            <mxPoint x="40" y="1000" as="targetPoint" />
            <Array as="points">
              <mxPoint x="382" y="900" />
              <mxPoint x="382" y="965" />
              <mxPoint x="40" y="965" />
              <mxPoint x="40" y="990" />
            </Array>
          </mxGeometry>
        </mxCell>
        <mxCell id="gaKlOw3Nlw9WnxR1V66K-37" style="edgeStyle=orthogonalEdgeStyle;rounded=0;orthogonalLoop=1;jettySize=auto;html=1;exitX=0;exitY=0.5;exitDx=0;exitDy=0;entryX=0.5;entryY=0;entryDx=0;entryDy=0;" edge="1" parent="1" source="gaKlOw3Nlw9WnxR1V66K-26" target="gaKlOw3Nlw9WnxR1V66K-30">
          <mxGeometry relative="1" as="geometry" />
        </mxCell>
        <mxCell id="gaKlOw3Nlw9WnxR1V66K-26" value="SI" style="rhombus;whiteSpace=wrap;html=1;" vertex="1" parent="1">
          <mxGeometry x="277.5" y="860" width="85" height="80" as="geometry" />
        </mxCell>
        <mxCell id="gaKlOw3Nlw9WnxR1V66K-28" value="Si" style="text;html=1;align=center;verticalAlign=middle;resizable=0;points=[];autosize=1;strokeColor=none;fillColor=none;" vertex="1" parent="1">
          <mxGeometry x="233.75" y="870" width="30" height="30" as="geometry" />
        </mxCell>
        <mxCell id="gaKlOw3Nlw9WnxR1V66K-29" value="No" style="text;html=1;align=center;verticalAlign=middle;resizable=0;points=[];autosize=1;strokeColor=none;fillColor=none;" vertex="1" parent="1">
          <mxGeometry x="375" y="870" width="40" height="30" as="geometry" />
        </mxCell>
        <mxCell id="gaKlOw3Nlw9WnxR1V66K-38" style="edgeStyle=orthogonalEdgeStyle;rounded=0;orthogonalLoop=1;jettySize=auto;html=1;exitX=0.5;exitY=1;exitDx=0;exitDy=0;entryX=0.5;entryY=0;entryDx=0;entryDy=0;" edge="1" parent="1" source="gaKlOw3Nlw9WnxR1V66K-30" target="gaKlOw3Nlw9WnxR1V66K-31">
          <mxGeometry relative="1" as="geometry" />
        </mxCell>
        <mxCell id="gaKlOw3Nlw9WnxR1V66K-30" value="Obtener carta aleatoria" style="rounded=1;whiteSpace=wrap;html=1;" vertex="1" parent="1">
          <mxGeometry x="80" y="989" width="190" height="40" as="geometry" />
        </mxCell>
        <mxCell id="gaKlOw3Nlw9WnxR1V66K-39" style="edgeStyle=orthogonalEdgeStyle;rounded=0;orthogonalLoop=1;jettySize=auto;html=1;exitX=0.5;exitY=1;exitDx=0;exitDy=0;entryX=0.5;entryY=0;entryDx=0;entryDy=0;" edge="1" parent="1" source="gaKlOw3Nlw9WnxR1V66K-31" target="gaKlOw3Nlw9WnxR1V66K-32">
          <mxGeometry relative="1" as="geometry" />
        </mxCell>
        <mxCell id="gaKlOw3Nlw9WnxR1V66K-31" value="Sumar carta a sumajugador" style="rounded=1;whiteSpace=wrap;html=1;" vertex="1" parent="1">
          <mxGeometry x="80" y="1059" width="190" height="40" as="geometry" />
        </mxCell>
        <mxCell id="gaKlOw3Nlw9WnxR1V66K-40" style="edgeStyle=orthogonalEdgeStyle;rounded=0;orthogonalLoop=1;jettySize=auto;html=1;exitX=0.5;exitY=1;exitDx=0;exitDy=0;entryX=1;entryY=0.5;entryDx=0;entryDy=0;" edge="1" parent="1" source="gaKlOw3Nlw9WnxR1V66K-32" target="gaKlOw3Nlw9WnxR1V66K-18">
          <mxGeometry relative="1" as="geometry" />
        </mxCell>
        <mxCell id="gaKlOw3Nlw9WnxR1V66K-32" value="Mostrar carta y suma" style="rounded=1;whiteSpace=wrap;html=1;" vertex="1" parent="1">
          <mxGeometry x="80" y="1129" width="190" height="40" as="geometry" />
        </mxCell>
        <mxCell id="gaKlOw3Nlw9WnxR1V66K-43" style="edgeStyle=orthogonalEdgeStyle;rounded=0;orthogonalLoop=1;jettySize=auto;html=1;exitX=0.5;exitY=1;exitDx=0;exitDy=0;entryX=0.5;entryY=0;entryDx=0;entryDy=0;" edge="1" parent="1" source="gaKlOw3Nlw9WnxR1V66K-33" target="gaKlOw3Nlw9WnxR1V66K-41">
          <mxGeometry relative="1" as="geometry" />
        </mxCell>
        <mxCell id="gaKlOw3Nlw9WnxR1V66K-50" style="edgeStyle=orthogonalEdgeStyle;rounded=0;orthogonalLoop=1;jettySize=auto;html=1;exitX=0;exitY=0.5;exitDx=0;exitDy=0;entryX=0.5;entryY=0;entryDx=0;entryDy=0;" edge="1" parent="1" source="gaKlOw3Nlw9WnxR1V66K-33" target="gaKlOw3Nlw9WnxR1V66K-49">
          <mxGeometry relative="1" as="geometry">
            <Array as="points">
              <mxPoint x="205" y="1260" />
              <mxPoint x="205" y="1530" />
              <mxPoint x="320" y="1530" />
            </Array>
          </mxGeometry>
        </mxCell>
        <mxCell id="gaKlOw3Nlw9WnxR1V66K-33" value="sumaCrupier &amp;lt; 17" style="rhombus;whiteSpace=wrap;html=1;" vertex="1" parent="1">
          <mxGeometry x="225" y="1220" width="190" height="80" as="geometry" />
        </mxCell>
        <mxCell id="gaKlOw3Nlw9WnxR1V66K-47" style="edgeStyle=orthogonalEdgeStyle;rounded=0;orthogonalLoop=1;jettySize=auto;html=1;exitX=0.5;exitY=1;exitDx=0;exitDy=0;entryX=0.5;entryY=0;entryDx=0;entryDy=0;" edge="1" parent="1" source="gaKlOw3Nlw9WnxR1V66K-41" target="gaKlOw3Nlw9WnxR1V66K-42">
          <mxGeometry relative="1" as="geometry" />
        </mxCell>
        <mxCell id="gaKlOw3Nlw9WnxR1V66K-41" value="Obtener carta aleatoria" style="rounded=1;whiteSpace=wrap;html=1;" vertex="1" parent="1">
          <mxGeometry x="225" y="1350" width="190" height="40" as="geometry" />
        </mxCell>
        <mxCell id="gaKlOw3Nlw9WnxR1V66K-48" style="edgeStyle=orthogonalEdgeStyle;rounded=0;orthogonalLoop=1;jettySize=auto;html=1;exitX=0.5;exitY=1;exitDx=0;exitDy=0;entryX=1;entryY=0.5;entryDx=0;entryDy=0;" edge="1" parent="1" source="gaKlOw3Nlw9WnxR1V66K-42" target="gaKlOw3Nlw9WnxR1V66K-33">
          <mxGeometry relative="1" as="geometry">
            <Array as="points">
              <mxPoint x="320" y="1510" />
              <mxPoint x="450" y="1510" />
              <mxPoint x="450" y="1260" />
            </Array>
          </mxGeometry>
        </mxCell>
        <mxCell id="gaKlOw3Nlw9WnxR1V66K-42" value="Sumar carta a sumaCrupier" style="rounded=1;whiteSpace=wrap;html=1;" vertex="1" parent="1">
          <mxGeometry x="225" y="1440" width="190" height="40" as="geometry" />
        </mxCell>
        <mxCell id="gaKlOw3Nlw9WnxR1V66K-52" style="edgeStyle=orthogonalEdgeStyle;rounded=0;orthogonalLoop=1;jettySize=auto;html=1;exitX=0.5;exitY=1;exitDx=0;exitDy=0;entryX=0.5;entryY=0;entryDx=0;entryDy=0;" edge="1" parent="1" source="gaKlOw3Nlw9WnxR1V66K-49" target="gaKlOw3Nlw9WnxR1V66K-51">
          <mxGeometry relative="1" as="geometry" />
        </mxCell>
        <mxCell id="gaKlOw3Nlw9WnxR1V66K-49" value="Mostrar sumajugador" style="rounded=1;whiteSpace=wrap;html=1;" vertex="1" parent="1">
          <mxGeometry x="225" y="1550" width="190" height="40" as="geometry" />
        </mxCell>
        <mxCell id="gaKlOw3Nlw9WnxR1V66K-54" style="edgeStyle=orthogonalEdgeStyle;rounded=0;orthogonalLoop=1;jettySize=auto;html=1;exitX=0.5;exitY=1;exitDx=0;exitDy=0;entryX=0.5;entryY=0;entryDx=0;entryDy=0;" edge="1" parent="1" source="gaKlOw3Nlw9WnxR1V66K-51" target="gaKlOw3Nlw9WnxR1V66K-53">
          <mxGeometry relative="1" as="geometry" />
        </mxCell>
        <mxCell id="gaKlOw3Nlw9WnxR1V66K-51" value="Mostrar sumaCrupier" style="rounded=1;whiteSpace=wrap;html=1;" vertex="1" parent="1">
          <mxGeometry x="225" y="1630" width="190" height="40" as="geometry" />
        </mxCell>
        <mxCell id="gaKlOw3Nlw9WnxR1V66K-65" style="edgeStyle=orthogonalEdgeStyle;rounded=0;orthogonalLoop=1;jettySize=auto;html=1;exitX=0;exitY=0.5;exitDx=0;exitDy=0;entryX=0.5;entryY=0;entryDx=0;entryDy=0;" edge="1" parent="1" source="gaKlOw3Nlw9WnxR1V66K-53" target="gaKlOw3Nlw9WnxR1V66K-55">
          <mxGeometry relative="1" as="geometry" />
        </mxCell>
        <mxCell id="gaKlOw3Nlw9WnxR1V66K-68" style="edgeStyle=orthogonalEdgeStyle;rounded=0;orthogonalLoop=1;jettySize=auto;html=1;exitX=1;exitY=0.5;exitDx=0;exitDy=0;entryX=0.5;entryY=0;entryDx=0;entryDy=0;" edge="1" parent="1" source="gaKlOw3Nlw9WnxR1V66K-53" target="gaKlOw3Nlw9WnxR1V66K-56">
          <mxGeometry relative="1" as="geometry" />
        </mxCell>
        <mxCell id="gaKlOw3Nlw9WnxR1V66K-53" value="suma jugador &amp;lt; 21" style="rhombus;whiteSpace=wrap;html=1;" vertex="1" parent="1">
          <mxGeometry x="225" y="1713.5" width="190" height="80" as="geometry" />
        </mxCell>
        <mxCell id="gaKlOw3Nlw9WnxR1V66K-55" value="Mostrar &quot;Perdiste&quot;" style="rounded=1;whiteSpace=wrap;html=1;" vertex="1" parent="1">
          <mxGeometry x="40" y="1820" width="120" height="33.5" as="geometry" />
        </mxCell>
        <mxCell id="gaKlOw3Nlw9WnxR1V66K-67" style="edgeStyle=orthogonalEdgeStyle;rounded=0;orthogonalLoop=1;jettySize=auto;html=1;exitX=0;exitY=0.5;exitDx=0;exitDy=0;entryX=0.5;entryY=0;entryDx=0;entryDy=0;" edge="1" parent="1" source="gaKlOw3Nlw9WnxR1V66K-56" target="gaKlOw3Nlw9WnxR1V66K-57">
          <mxGeometry relative="1" as="geometry" />
        </mxCell>
        <mxCell id="gaKlOw3Nlw9WnxR1V66K-70" style="edgeStyle=orthogonalEdgeStyle;rounded=0;orthogonalLoop=1;jettySize=auto;html=1;exitX=1;exitY=0.5;exitDx=0;exitDy=0;entryX=0.5;entryY=0;entryDx=0;entryDy=0;" edge="1" parent="1" source="gaKlOw3Nlw9WnxR1V66K-56" target="gaKlOw3Nlw9WnxR1V66K-58">
          <mxGeometry relative="1" as="geometry" />
        </mxCell>
        <mxCell id="gaKlOw3Nlw9WnxR1V66K-56" value="suma jugador &amp;lt; 21" style="rhombus;whiteSpace=wrap;html=1;" vertex="1" parent="1">
          <mxGeometry x="450" y="1820" width="190" height="80" as="geometry" />
        </mxCell>
        <mxCell id="gaKlOw3Nlw9WnxR1V66K-69" style="edgeStyle=orthogonalEdgeStyle;rounded=0;orthogonalLoop=1;jettySize=auto;html=1;exitX=0.5;exitY=1;exitDx=0;exitDy=0;" edge="1" parent="1" source="gaKlOw3Nlw9WnxR1V66K-57">
          <mxGeometry relative="1" as="geometry">
            <mxPoint x="320.0000000000001" y="2160" as="targetPoint" />
            <Array as="points">
              <mxPoint x="362" y="2040" />
              <mxPoint x="320" y="2040" />
            </Array>
          </mxGeometry>
        </mxCell>
        <mxCell id="gaKlOw3Nlw9WnxR1V66K-57" value="Mostrar &quot;Ganaste&quot;" style="rounded=1;whiteSpace=wrap;html=1;" vertex="1" parent="1">
          <mxGeometry x="302.5" y="1890" width="120" height="33.5" as="geometry" />
        </mxCell>
        <mxCell id="gaKlOw3Nlw9WnxR1V66K-71" style="edgeStyle=orthogonalEdgeStyle;rounded=0;orthogonalLoop=1;jettySize=auto;html=1;exitX=0;exitY=0.5;exitDx=0;exitDy=0;entryX=0.5;entryY=0;entryDx=0;entryDy=0;" edge="1" parent="1" source="gaKlOw3Nlw9WnxR1V66K-58" target="gaKlOw3Nlw9WnxR1V66K-61">
          <mxGeometry relative="1" as="geometry" />
        </mxCell>
        <mxCell id="gaKlOw3Nlw9WnxR1V66K-72" style="edgeStyle=orthogonalEdgeStyle;rounded=0;orthogonalLoop=1;jettySize=auto;html=1;exitX=1;exitY=0.5;exitDx=0;exitDy=0;entryX=0.5;entryY=0;entryDx=0;entryDy=0;" edge="1" parent="1" source="gaKlOw3Nlw9WnxR1V66K-58" target="gaKlOw3Nlw9WnxR1V66K-60">
          <mxGeometry relative="1" as="geometry" />
        </mxCell>
        <mxCell id="gaKlOw3Nlw9WnxR1V66K-58" value="sumajugador &amp;gt; sumaCrupier" style="rhombus;whiteSpace=wrap;html=1;" vertex="1" parent="1">
          <mxGeometry x="700" y="1910" width="210" height="80" as="geometry" />
        </mxCell>
        <mxCell id="gaKlOw3Nlw9WnxR1V66K-73" style="edgeStyle=orthogonalEdgeStyle;rounded=0;orthogonalLoop=1;jettySize=auto;html=1;exitX=0;exitY=0.5;exitDx=0;exitDy=0;entryX=0.5;entryY=0;entryDx=0;entryDy=0;" edge="1" parent="1" source="gaKlOw3Nlw9WnxR1V66K-60" target="gaKlOw3Nlw9WnxR1V66K-62">
          <mxGeometry relative="1" as="geometry" />
        </mxCell>
        <mxCell id="gaKlOw3Nlw9WnxR1V66K-74" style="edgeStyle=orthogonalEdgeStyle;rounded=0;orthogonalLoop=1;jettySize=auto;html=1;exitX=1;exitY=0.5;exitDx=0;exitDy=0;entryX=0.5;entryY=0;entryDx=0;entryDy=0;" edge="1" parent="1" source="gaKlOw3Nlw9WnxR1V66K-60" target="gaKlOw3Nlw9WnxR1V66K-63">
          <mxGeometry relative="1" as="geometry" />
        </mxCell>
        <mxCell id="gaKlOw3Nlw9WnxR1V66K-60" value="sumajugador &amp;lt; sumaCrupier" style="rhombus;whiteSpace=wrap;html=1;" vertex="1" parent="1">
          <mxGeometry x="980" y="2000" width="210" height="80" as="geometry" />
        </mxCell>
        <mxCell id="gaKlOw3Nlw9WnxR1V66K-75" style="edgeStyle=orthogonalEdgeStyle;rounded=0;orthogonalLoop=1;jettySize=auto;html=1;exitX=0.5;exitY=1;exitDx=0;exitDy=0;" edge="1" parent="1" source="gaKlOw3Nlw9WnxR1V66K-61">
          <mxGeometry relative="1" as="geometry">
            <mxPoint x="320" y="2160" as="targetPoint" />
            <Array as="points">
              <mxPoint x="620" y="2160" />
            </Array>
          </mxGeometry>
        </mxCell>
        <mxCell id="gaKlOw3Nlw9WnxR1V66K-61" value="Mostrar &quot;Ganaste&quot;" style="rounded=1;whiteSpace=wrap;html=1;" vertex="1" parent="1">
          <mxGeometry x="560" y="2000" width="120" height="33.5" as="geometry" />
        </mxCell>
        <mxCell id="gaKlOw3Nlw9WnxR1V66K-77" style="edgeStyle=orthogonalEdgeStyle;rounded=0;orthogonalLoop=1;jettySize=auto;html=1;exitX=0.5;exitY=1;exitDx=0;exitDy=0;" edge="1" parent="1" source="gaKlOw3Nlw9WnxR1V66K-62">
          <mxGeometry relative="1" as="geometry">
            <mxPoint x="620" y="2160" as="targetPoint" />
            <Array as="points">
              <mxPoint x="910" y="2160" />
            </Array>
          </mxGeometry>
        </mxCell>
        <mxCell id="gaKlOw3Nlw9WnxR1V66K-62" value="Mostrar &quot;Perdiste&quot;" style="rounded=1;whiteSpace=wrap;html=1;" vertex="1" parent="1">
          <mxGeometry x="850" y="2100" width="120" height="33.5" as="geometry" />
        </mxCell>
        <mxCell id="gaKlOw3Nlw9WnxR1V66K-79" style="edgeStyle=orthogonalEdgeStyle;rounded=0;orthogonalLoop=1;jettySize=auto;html=1;exitX=0.5;exitY=1;exitDx=0;exitDy=0;" edge="1" parent="1" source="gaKlOw3Nlw9WnxR1V66K-63">
          <mxGeometry relative="1" as="geometry">
            <mxPoint x="910" y="2160" as="targetPoint" />
            <Array as="points">
              <mxPoint x="1220" y="2160" />
            </Array>
          </mxGeometry>
        </mxCell>
        <mxCell id="gaKlOw3Nlw9WnxR1V66K-63" value="Mostrar &quot;Empate&quot;" style="rounded=1;whiteSpace=wrap;html=1;" vertex="1" parent="1">
          <mxGeometry x="1160" y="2110" width="120" height="33.5" as="geometry" />
        </mxCell>
        <mxCell id="gaKlOw3Nlw9WnxR1V66K-64" value="FIN" style="strokeWidth=2;html=1;shape=mxgraph.flowchart.terminator;whiteSpace=wrap;" vertex="1" parent="1">
          <mxGeometry x="270" y="2210" width="100" height="60" as="geometry" />
        </mxCell>
        <mxCell id="gaKlOw3Nlw9WnxR1V66K-66" style="edgeStyle=orthogonalEdgeStyle;rounded=0;orthogonalLoop=1;jettySize=auto;html=1;exitX=0.5;exitY=1;exitDx=0;exitDy=0;entryX=0.5;entryY=0;entryDx=0;entryDy=0;entryPerimeter=0;" edge="1" parent="1" source="gaKlOw3Nlw9WnxR1V66K-55" target="gaKlOw3Nlw9WnxR1V66K-64">
          <mxGeometry relative="1" as="geometry">
            <Array as="points">
              <mxPoint x="100" y="2160" />
              <mxPoint x="320" y="2160" />
            </Array>
          </mxGeometry>
        </mxCell>
        <mxCell id="gaKlOw3Nlw9WnxR1V66K-80" value="Si" style="text;html=1;align=center;verticalAlign=middle;resizable=0;points=[];autosize=1;strokeColor=none;fillColor=none;" vertex="1" parent="1">
          <mxGeometry x="195" y="1724" width="30" height="30" as="geometry" />
        </mxCell>
        <mxCell id="gaKlOw3Nlw9WnxR1V66K-81" value="No" style="text;html=1;align=center;verticalAlign=middle;resizable=0;points=[];autosize=1;strokeColor=none;fillColor=none;" vertex="1" parent="1">
          <mxGeometry x="409" y="1713.5" width="40" height="30" as="geometry" />
        </mxCell>
        <mxCell id="gaKlOw3Nlw9WnxR1V66K-84" value="Si" style="text;html=1;align=center;verticalAlign=middle;resizable=0;points=[];autosize=1;strokeColor=none;fillColor=none;" vertex="1" parent="1">
          <mxGeometry x="418" y="1823.5" width="30" height="30" as="geometry" />
        </mxCell>
        <mxCell id="gaKlOw3Nlw9WnxR1V66K-85" value="No" style="text;html=1;align=center;verticalAlign=middle;resizable=0;points=[];autosize=1;strokeColor=none;fillColor=none;" vertex="1" parent="1">
          <mxGeometry x="632" y="1813" width="40" height="30" as="geometry" />
        </mxCell>
        <mxCell id="gaKlOw3Nlw9WnxR1V66K-86" value="Si" style="text;html=1;align=center;verticalAlign=middle;resizable=0;points=[];autosize=1;strokeColor=none;fillColor=none;" vertex="1" parent="1">
          <mxGeometry x="678" y="1910.5" width="30" height="30" as="geometry" />
        </mxCell>
        <mxCell id="gaKlOw3Nlw9WnxR1V66K-87" value="No" style="text;html=1;align=center;verticalAlign=middle;resizable=0;points=[];autosize=1;strokeColor=none;fillColor=none;" vertex="1" parent="1">
          <mxGeometry x="892" y="1900" width="40" height="30" as="geometry" />
        </mxCell>
        <mxCell id="gaKlOw3Nlw9WnxR1V66K-88" value="Si" style="text;html=1;align=center;verticalAlign=middle;resizable=0;points=[];autosize=1;strokeColor=none;fillColor=none;" vertex="1" parent="1">
          <mxGeometry x="950" y="2003.5" width="30" height="30" as="geometry" />
        </mxCell>
        <mxCell id="gaKlOw3Nlw9WnxR1V66K-89" value="No" style="text;html=1;align=center;verticalAlign=middle;resizable=0;points=[];autosize=1;strokeColor=none;fillColor=none;" vertex="1" parent="1">
          <mxGeometry x="1164" y="1993" width="40" height="30" as="geometry" />
        </mxCell>
      </root>
    </mxGraphModel>
  </diagram>
</mxfile>
